<?xml version="1.0" standalone="no"?><!DOCTYPE svg PUBLIC "-//W3C//DTD SVG 1.1//EN" "http://www.w3.org/Graphics/SVG/1.1/DTD/svg11.dtd"><svg t="1560505049937" class="icon" style="" viewBox="0 0 1637 1024" version="1.1" xmlns="http://www.w3.org/2000/svg" p-id="23145" xmlns:xlink="http://www.w3.org/1999/xlink" width="319.7265625" height="200"><defs><style type="text/css"></style></defs><path d="M320.398 0.025H728.23c56.943 0 92.326 46.438 79.089 103.555L617.402 918.723c-13.437 56.943-70.393 103.38-127.336 103.38H81.884c-56.943 0-92.327-46.362-79.09-103.38l190.48-815.168C206.5 46.388 263.454 0 320.534 0" fill="#ED171F" p-id="23146"></path><path d="M694.532 0.025h469.03c56.944 0 31.192 46.438 17.892 103.555L991.311 918.723c-13.287 56.943-9.107 103.38-66.2 103.38H456.155c-57.08 0-92.389-46.362-78.952-103.38L567.06 103.555C580.496 46.388 637.452 0 694.319 0" fill="#082F67" p-id="23147"></path><path d="M1144.76 0.025h407.759c57.018 0 92.451 46.438 79.089 103.555L1441.69 918.723c-13.3 56.943-70.318 103.38-127.41 103.38H906.595c-57.018 0-92.327-46.362-78.952-103.38l189.78-815.168C1030.725 46.388 1087.744 0 1144.824 0" fill="#006A65" p-id="23148"></path><path d="M1174.904 766.746h-13.088l49.657-164.59 16.22 0.074 5.426-17.641 0.425 19.238c-0.487 11.703 8.633 22.009 32.713 20.262h27.848l9.62-31.678h-10.444c-5.988 0-8.434-1.534-8.434-4.728l-0.549-19.214h-51.528v0.374c-16.444 0.337-66.762 1.56-76.868 4.292a90.53 90.53 0 0 0-25.065 12.39l4.99-17.056h-48.16l-9.98 33.687-50.406 167.098h-9.756l-9.67 31.466h96.207l-3.194 10.505h47.274l3.131-10.505h13.363z m-59.8 0H1076.6l11.142-36.906h38.427z m21.372-71.29s-11.903 1.459-19.838 3.268a184.528 184.528 0 0 0-22.457 9.819l13.225-43.668h38.502z m-0.624-60.15a203.817 203.817 0 0 0-22.146 8.621l12.739-41.771 38.365-0.337-9.195 30.63a125.739 125.739 0 0 0-19.763 2.857z" fill="#FFFFFF" p-id="23149"></path><path d="M1207.73 664.825h55.695l-8.035 25.752h-56.144l-8.422 28.26h48.733l-36.756 52.276a15.284 15.284 0 0 1-7.585 6.338 22.071 22.071 0 0 1-9.982 2.857h-13.874l-9.27 30.917h35.72a43.468 43.468 0 0 0 37.53-19.588l25.54-34.81 5.427 35.509a17.38 17.38 0 0 0 9.195 12.114 33.462 33.462 0 0 0 12.477 5.153 110.692 110.692 0 0 0 12.19 0.549h17.541l10.518-34.797h-6.962a27.898 27.898 0 0 1-11.902-1.884 19.314 19.314 0 0 1-1.822-7.311l-5.49-35.57h-22.77l9.745-12.19h56.144l8.56-28.26h-51.866l8.072-25.34h51.728l9.682-31.827h-154.185z m-462.17-96.643L732.2 592.549a28.958 28.958 0 0 1-7.873 10.093 24.616 24.616 0 0 1-11.915 1.847h-6.95l-9.47 31.191h23.32a52.589 52.589 0 0 0 24.017-6.238c4.454-2.37 5.639-1.048 8.983-4.317l7.935-6.962h72.825l9.745-32.44h-53.4l9.545-17.554z m-5.85 205.526l12.813-42.82h53.187l9.682-32.027h-53.187l8.072-26.388h52.002l9.607-31.041h-129.98l-9.67 30.767h29.52l-7.873 26.388h-29.72l-9.818 32.514h29.52l-17.206 57.017a18.827 18.827 0 0 0 12.814 20.886 60.25 60.25 0 0 0 13.923 1.872h59.95l10.643-35.434-26.588 3.618c-5.065 0-19.289-0.623-17.692-5.352z m113.411 0.898c-1.247-1.734-0.337-4.803 1.535-11.416l20.262-65.127h70.804c10.306-0.063 17.742-0.275 22.62-0.686a46.163 46.163 0 0 0 17.056-5.715 31.653 31.653 0 0 0 12.476-11.416 96.968 96.968 0 0 0 12.19-27.847l24.953-83.593-73.45 0.337a233.187 233.187 0 0 0-32.65 6.974 134.285 134.285 0 0 0-24.367 15.533l6.612-22.832h-45.44l-63.63 210.667a124.416 124.416 0 0 0-4.105 17.679c-0.137 3.83 4.866 7.586 8.148 10.443a27.236 27.236 0 0 0 14.822 2.932c5.64 0.686 13.724 0.686 24.953 0.686h34.81l10.654-36.182-31.191 2.932a8.147 8.147 0 0 1-7.062-3.369z m49.495-171.677H977.6l-5.353 17.78s-35.446-0.35-41.085 0.773a83.443 83.443 0 0 0-39.4 17.604z m-14.972 50.118h74.497l-4.803 15.072a46.014 46.014 0 0 0-9.807 0h-64.479z m152.75-146.824c1.535-6.962 10.518-50.954 10.655-50.954s7.66-32.164 8.085-33.287a17.767 17.767 0 0 1 4.866-4.592h3.48c33.35 0 71.117 0 100.674-21.784a107.548 107.548 0 0 0 39.925-63.568 98.565 98.565 0 0 0 2.782-22.283 46.438 46.438 0 0 0-8.01-28.334c-15.109-20.873-44.915-21.372-79.712-21.647l0.137 0.412h-17.018c-44.342 0.486-62.096 0-69.62-0.624-0.698 3.207-1.883 8.983-1.883 8.983s-15.72 73.612-15.72 73.724l-39.826 163.954c38.64-0.486 54.573-0.486 61.185 0z m29.457-130.679s16.98-73.437 16.844-73.225l0.424-3.743 0.35-2.92 6.961 0.762 35.708 3.069c13.924 5.215 19.426 19.002 15.384 36.893h-0.175a53.998 53.998 0 0 1-27.848 36.756 87.86 87.86 0 0 1-39.201 6.126h-9.183z m-205.863 130.38l1.735-1.81c2.72-13.723 3.069-16.917 8.908-44.765 2.857-13.362 8.733-42.258 11.64-52.626a39.675 39.675 0 0 1 15.446-4.804c11.766 0 10.368 10.306 9.982 14.548-0.487 6.962-4.804 29.307-9.258 48.733l-2.857 12.477c-2.159 9.258-4.53 18.24-6.538 27.361l0.898 1.672c23.88-0.836 30.843-0.836 51.728-0.836l2.496-2.084c3.543-21.447 4.316-27.161 11.228-58.49l3.27-14.273c6.475-28.122 9.681-42.42 4.878-54.023-5.29-12.95-17.555-16.082-28.821-16.082a80.361 80.361 0 0 0-32.863 7.735c-4.392 2.22-8.734 4.866-12.951 7.486l3.743-14.26-2.009-2.496c-25.689 5.228-31.478 5.926-55.209 9.27l-1.834 1.273a716.827 716.827 0 0 1-15.396 85.127c-3.892 16.494-7.935 33.138-11.977 49.781l1.123 1.872c24.23-0.786 31.753-0.786 52.638-0.786z m-146.587 2.495a86.774 86.774 0 0 0 65.377-25.552 114.36 114.36 0 0 0 22.558-48.172v0.063c6.962-31.454 1.734-46.288-5.365-55.334-10.717-13.936-29.582-18.04-49.22-18.04a90.555 90.555 0 0 0-61.684 21.446 102.046 102.046 0 0 0-27.398 53.225c-4.38 19.214-9.532 54.086 22.457 67.037a96.07 96.07 0 0 0 33.275 5.327z m-1.671-70.804c5.327-23.918 11.802-43.98 27.872-43.98 12.814 0 13.924 14.972 8.085 38.852l0.212 0.062A108.546 108.546 0 0 1 739.784 466a19.85 19.85 0 0 1-15.383 9.981c-1.672 0-11.766 0-11.903-15.034a99.55 99.55 0 0 1 3.194-23.369z m459.174 1.921c-4.392 18.927-9.545 53.65 22.27 66.126a64.18 64.18 0 0 0 28.41 5.153 46.75 46.75 0 0 0 27.086-12.327 376.447 376.447 0 0 0-2.233 8.559l1.46 1.809c22.907-0.973 30.006-0.973 54.722-0.761l2.308-1.747c3.618-21.21 6.962-41.771 16.494-82.632 4.454-19.426 9.195-38.852 13.924-58.128l-0.624-2.645c-25.627 4.728-32.44 5.701-57.018 9.257l-1.81 1.535a39.7 39.7 0 0 1-0.773 5.764 34.772 34.772 0 0 0-17.953-14.747c-10.93-4.255-36.694 1.185-58.64 21.297a100.112 100.112 0 0 0-27.623 53.487z m54.023 0.624c5.44-23.393 11.84-43.306 27.848-43.306 10.306 0 15.733 9.532 14.622 25.764-0.836 4.03-1.809 8.284-2.92 13.15-1.609 6.962-3.418 13.924-5.152 20.886a50.093 50.093 0 0 1-5.989 12.052h0.2a28.284 28.284 0 0 1-19.863 9.67c-1.61 0-11.628 0-12.052-14.897a105.165 105.165 0 0 1 3.319-23.319z m281.608-77.142h-0.898l-2.021-2.234c-25.203 4.99-29.869 5.989-53.125 9.058l-1.81 1.734v1.049c-17.33 39.924-16.78 31.39-30.904 62.657v-3.83l-3.556-68.222-2.158-2.234c-26.45 4.991-27.211 5.99-51.653 9.046l-2.021 1.747v3.056a336.642 336.642 0 0 1 5.365 36.831c1.46 12.04 3.343 24.367 4.654 36.27 2.495 19.962 3.83 29.943 6.974 60.423-16.507 27.361-20.474 37.667-36.182 61.697l-11.229 17.816a8.883 8.883 0 0 1-4.042 3.556 18.228 18.228 0 0 1-7.486 1.11h-6.126l-9.27 30.655 31.815 0.487a39.139 39.139 0 0 0 36.544-20.461l19.962-34.124h-0.424l2.233-2.433c13.425-28.77 115.358-203.654 115.358-203.654z m-862.927-12.315c-11.342-6.687-31.816-4.678-45.465 4.729s-15.246 22.458-3.743 29.245 31.753 4.728 45.465-4.741h-0.075c13.562-9.395 15.171-22.558 3.818-29.233z m-0.275 39.888c-12.738 2.433-20.886 3.967-28.958 5.153l-27.848 4.03-0.985 0.91-0.973 0.699c-1.186 9.183-2.221 16.918-3.743 26.45s-3.83 20.537-7.387 36.182a143.655 143.655 0 0 1-5.839 20.537 159.825 159.825 0 0 0-6.412 20.286l0.773 0.974 0.699 0.898c11.478-0.412 19.139-0.898 26.725-0.898h27.847l1.185-0.7 1.123-0.972c1.872-10.73 2.084-13.3 3.194-18.865s2.932-13.025 7.486-33.911c2.358-9.744 4.804-19.351 6.962-29.233s4.53-19.563 6.962-29.32l-0.35-1.11z m-116.132-29.732a80.686 80.686 0 0 0-32.925 7.736c-4.53 2.22-8.634 4.865-12.95 7.486l3.83-14.261-2.159-2.495c-25.69 5.227-31.391 5.926-55.134 9.27l-1.884 1.335a725.074 725.074 0 0 1-15.658 85.14c-3.83 16.494-7.873 33.137-11.977 49.78l1.11 1.872c24.304-0.836 31.89-0.836 52.776-0.836l1.734-1.809c2.645-13.724 3.07-16.918 8.983-44.765 2.782-13.363 8.634-42.259 11.491-52.627a40.162 40.162 0 0 1 15.446-4.803c11.778 0 10.38 10.306 9.981 14.548-0.411 6.962-4.803 29.307-9.257 48.733l-2.92 12.477c-2.021 9.257-4.317 18.24-6.4 27.36l0.898 1.673c23.88-0.836 31.191-0.836 51.728-0.836l2.582-2.084c3.681-21.447 4.729-27.161 11.342-58.49l3.268-14.273c6.413-28.122 9.682-42.42 4.742-54.024-5.178-12.975-17.368-16.107-28.647-16.107z" fill="#FFFFFF" p-id="23150"></path><path d="M958.81 717.24a9.869 9.869 0 0 1-3.07 4.74 15.833 15.833 0 0 1-7.485 1.248H937.6l0.624-18.029h-43.668l-1.81 88.347c-0.149 5.988 0.412 9.195 5.154 12.95s19.076 4.105 38.427 4.105h27.848l9.881-33-24.08 1.322-7.947 0.424a8.734 8.734 0 0 1-3.331-2.02c-0.986-1.124-2.37-0.487-2.37-6.963v-22.632l25.127-1.036a32.838 32.838 0 0 0 24.442-8.571 27.236 27.236 0 0 0 8.072-15.034l4.155-20.038-34.935 0.275zM426.985 261.445c-41.772 0.487-54.236 0-58.203-0.836l-0.138-0.212c-1.597 6.962-29.868 137.716-30.006 137.778-6.126 26.45-10.517 45.328-25.552 57.393a46.088 46.088 0 0 1-30.068 10.368c-18.528 0-29.457-9.12-31.329-26.663v-6.063s5.64-35.434 5.702-35.571 29.732-119.051 34.81-134.747l0.424-1.734c-57.791 0.487-68.085 0-68.783-0.836-0.35 1.11-1.947 8.559-1.947 8.559L191.602 402.98l-2.645 11.416-4.99 37.18a54.672 54.672 0 0 0 6.475 27.848c13.924 24.23 53.25 27.847 75.533 27.847a147.46 147.46 0 0 0 73.861-17.192c31.616-18.802 39.925-47.973 47.274-73.874l3.48-13.225s30.568-123.643 35.858-139.737a7.137 7.137 0 0 1 0.537-1.797z" fill="#FFFFFF" p-id="23151"></path></svg>